<svg width="359" height="439" viewBox="0 0 359 439" fill="none" xmlns="http://www.w3.org/2000/svg">
<g clip-path="url(#clip0_623_558)">
<path d="M358.361 286.398C354.57 230.289 302.346 197.488 273.711 186.273C274.087 188.685 274.339 191.159 274.463 193.635C275.309 201.216 275.497 215.972 273.398 230.979C288.498 249.525 296.706 276.31 296.706 310.897C296.706 391.035 241.819 408.735 193.448 406.856C186.745 406.511 181.105 405.853 177.096 405.132C170.109 403.785 168.01 402.877 165.974 398.617C161.744 385.239 163.029 370.233 162.402 356.198C162.402 340.941 162.371 325.371 162.308 309.675C162.308 305.508 162.308 301.311 162.308 297.112C162.246 286.993 162.308 276.875 162.371 266.787C162.371 262.306 162.433 257.827 162.496 253.378C162.59 244.387 162.778 235.49 163.029 226.686C163.781 217.883 163.029 204.318 171.111 202.846C164.815 192.915 155.103 184.393 142.509 177.47C132.295 177.532 122.146 177.657 112.121 177.783H111.587C100.372 177.971 76.8757 178.128 64.2817 178.347C54.6639 178.973 42.8218 177.47 38.561 186.304C38.2478 204.631 86.0861 201.436 89.2503 218.604C89.9082 226.091 90.2528 236.586 90.3782 248.804C90.4408 253.19 90.4408 257.796 90.4408 262.62C90.4408 271.329 90.3469 280.633 90.2215 290.064C90.1276 294.324 90.0649 298.616 90.0022 302.939C89.3757 333.861 88.3419 364.688 87.7466 382.482C88.1852 400.558 67.8844 402.25 52.5961 408.014C46.6438 410.459 41.9132 413.81 39.7829 417.257C36.3367 422.739 39.4383 428.19 44.7955 429.287C89.7203 432.106 205.948 432.263 257.014 426.561C292.571 420.546 301.124 417.413 328.348 393.321C356.763 366.442 360.992 325.088 358.361 286.398Z" fill="black"/>
<path d="M20.7549 116.754C39.7086 132.01 68.844 145.043 92.7162 148.74C114.208 152.06 131.657 157.763 145.567 164.937C152.961 168.727 159.32 172.925 164.803 177.405C173.857 184.83 180.372 193.006 184.696 201.371C186.827 205.444 188.424 209.548 189.521 213.621C192.403 224.179 192.027 234.517 189.082 243.382C186.451 251.309 181.344 257.01 174.891 261.115C174.765 272.644 174.765 284.266 174.765 295.826C176.425 295.607 178.055 295.387 179.683 295.106C207.222 290.971 241.431 278.753 253.525 255.632C256.5 249.962 258.632 242.568 260.041 234.799C260.949 229.786 261.576 224.585 261.952 219.573C262.735 209.579 262.579 200.306 261.92 194.636C261.733 190.375 261.075 186.208 260.041 182.136C258.819 177.374 257.065 172.769 254.84 168.351C243.562 145.858 220.787 128.439 199.577 120.795C182.66 114.403 163.894 109.642 146.663 105.538C132.315 101.371 117.372 96.5779 103.242 92.2859C89.3327 87.1481 67.1209 66.9099 74.5457 51.1518C91.3377 27.9688 125.109 23.5202 151.112 31.3523C168.687 35.4249 186.889 49.0841 199.671 61.5214C207.816 68.7896 208.819 72.9563 213.768 79.8799C219.032 86.5215 228.963 92.1293 237.515 89.1531C253.212 82.5115 248.168 59.6418 249.671 45.4813C248.668 32.2922 253.618 11.0828 240.053 6.28957C225.611 2.18556 213.707 17.5365 199.075 15.782C184.195 13.9337 169.91 7.82466 156.125 3.72064C140.711 -0.508681 99.2951 -1.82447 76.1747 3.47002L75.4542 3.62666C48.7312 10.6128 11.8264 23.8961 5.09076 54.0653C0.234862 76.2145 1.08073 101.872 20.7549 116.754Z" fill="black"/>
<path d="M53.1962 280.07C61.279 281.887 69.4556 284.268 77.6951 286.587C77.8516 275.997 77.9144 265.691 77.8516 256.198C62.8768 247.395 49.5935 235.74 40.2264 223.585C33.5848 214.312 26.2226 202.47 13.7226 201.812C4.07341 200.934 0.376668 209.989 0.345339 218.385C-0.312555 232.67 0.0633841 256.511 0.689951 271.768C1.22253 278.347 1.03456 286.931 7.2689 290.408C10.1824 291.818 13.6913 291.474 16.8867 290.627C28.5095 287.276 40.1636 277.314 53.1962 280.07Z" fill="black"/>
</g>
<defs>
<clipPath id="clip0_623_558">
<rect width="359" height="438.778" fill="white"/>
</clipPath>
</defs>
</svg>
